# xmcd
# Track frame offsets:
# 150
# 18493
# 34273
# 48894
# 61856
# 78417
# 97560
# 111890
# 129307
# 141732
#
# Disc length: 2101 seconds
# Revision: 0
# Processed by: cddbd v1.4PL0 Copyright (c) Steve Scherf et al.
# Submitted via: VisiTrax 2.9.5.180 - For more info visit www.synapsa.com
#
DISCID=7c08330a
DTITLE=B Jeff Stone - Stone Country
DYEAR=1900
DGENRE=
TTITLE0=Mary Ann regrets
TTITLE1=Women wild/whiskey strong
TTITLE2=Memory killer
TTITLE3=Sweet thang
TTITLE4=Corsicana Texas
TTITLE5=Lonely to long
TTITLE6=Everybody loves me
TTITLE7=Laura
TTITLE8=Texas country boy
TTITLE9=Luckenbach Texas
EXTD=
EXTT0=
EXTT1=
EXTT2=
EXTT3=
EXTT4=
EXTT5=
EXTT6=
EXTT7=
EXTT8=
EXTT9=
PLAYORDER=
